<?xml version="1.0" encoding="UTF-8" standalone="no"?>
<svg
   xmlns:dc="http://purl.org/dc/elements/1.1/"
   xmlns:cc="http://creativecommons.org/ns#"
   xmlns:rdf="http://www.w3.org/1999/02/22-rdf-syntax-ns#"
   xmlns:svg="http://www.w3.org/2000/svg"
   xmlns="http://www.w3.org/2000/svg"
   viewBox="0 0 682.66669 682.66669"
   height="682.66669"
   width="682.66669"
   xml:space="preserve"
   id="svg2"
   version="1.1"><metadata
     id="metadata8"><rdf:RDF><cc:Work
         rdf:about=""><dc:format>image/svg+xml</dc:format><dc:type
           rdf:resource="http://purl.org/dc/dcmitype/StillImage" /></cc:Work></rdf:RDF></metadata><defs
     id="defs6"><clipPath
       id="clipPath18"
       clipPathUnits="userSpaceOnUse"><path
         id="path16"
         d="M 0,512 H 512 V 0 H 0 Z" /></clipPath></defs><g
     transform="matrix(1.3333333,0,0,-1.3333333,0,682.66667)"
     id="g10"><g
       id="g12"><g
         clip-path="url(#clipPath18)"
         id="g14"><g
           transform="translate(500.541,256)"
           id="g20"><path
             id="path22"
             style="fill:#37393b;fill-opacity:1;fill-rule:nonzero;stroke:none"
             d="m 0,0 c 0,-135.057 -109.484,-244.541 -244.541,-244.541 -135.056,0 -244.541,109.484 -244.541,244.541 0,135.056 109.485,244.541 244.541,244.541 C -109.484,244.541 0,135.056 0,0" /></g><g
           transform="translate(500.541,256)"
           id="g24"><path
             id="path26"
             style="fill:none;stroke:#ffffff;stroke-width:13;stroke-linecap:butt;stroke-linejoin:miter;stroke-miterlimit:10;stroke-dasharray:none;stroke-opacity:1"
             d="m 0,0 c 0,-135.057 -109.484,-244.541 -244.541,-244.541 -135.056,0 -244.541,109.484 -244.541,244.541 0,135.056 109.485,244.541 244.541,244.541 C -109.484,244.541 0,135.056 0,0 Z" /></g><g
           transform="translate(200.6401,215.96)"
           id="g28"><path
             id="path30"
             style="fill:#a2b9c8;fill-opacity:1;fill-rule:nonzero;stroke:none"
             d="m 0,0 h 109.44 c 0,0 16.2,-91.8 59.4,-92.16 43.2,-0.36 51.119,54.36 51.119,54.36 0,0 17.641,58.321 2.521,114.12 -15.12,55.8 -34.679,77.894 -55.561,79.56 -22.559,1.8 -86.639,1.44 -101.399,1.44 L 65.4,174.96 H 44.76 l -0.48,-18.36 -95.735,0.347 c -7.643,0.028 -15.061,-2.54 -21.057,-7.279 -12.036,-9.512 -30.597,-28.923 -37.648,-61.828 -10.8,-50.4 -5.806,-108.198 1.8,-135 7.56,-26.64 19.8,-42.484 39.24,-45.002 19.44,-2.518 44.28,4.683 64.08,69.842 z" /></g><g
           transform="translate(198.3564,372.4399)"
           id="g32"><path
             id="path34"
             style="fill:#94a7b9;fill-opacity:1;fill-rule:nonzero;stroke:none"
             d="m 0,0 c 0,0 -9.647,-27.011 11.094,-39.552 4.901,-2.964 10.588,-4.368 16.315,-4.368 h 60.469 c 5.727,0 11.414,1.404 16.315,4.368 C 124.935,-27.011 115.287,0 115.287,0" /></g><g
           transform="translate(176.2798,256)"
           id="g36"><path
             id="path38"
             style="fill:#5b616f;fill-opacity:1;fill-rule:nonzero;stroke:none"
             d="m 0,0 c 0,-20.081 -16.279,-36.36 -36.36,-36.36 -20.081,0 -36.36,16.279 -36.36,36.36 0,20.081 16.279,36.36 36.36,36.36 C -16.279,36.36 0,20.081 0,0" /></g><path
           id="path40"
           style="fill:#4f5763;fill-opacity:1;fill-rule:nonzero;stroke:none"
           d="m 142.758,219.64 h -5.676 v 72.72 h 5.676 z" /><path
           id="path42"
           style="fill:#4f5763;fill-opacity:1;fill-rule:nonzero;stroke:none"
           d="m 176.28,253.162 h -72.72 v 5.676 h 72.72 z" /><g
           transform="translate(243.7202,258.9199)"
           id="g44"><path
             id="path46"
             style="fill:#576773;fill-opacity:1;fill-rule:nonzero;stroke:none"
             d="m 0,0 c 0,-6.362 -5.158,-11.52 -11.52,-11.52 -6.362,0 -11.52,5.158 -11.52,11.52 0,6.362 5.158,11.52 11.52,11.52 C -5.158,11.52 0,6.362 0,0" /></g><g
           transform="translate(289.7998,258.9199)"
           id="g48"><path
             id="path50"
             style="fill:#576773;fill-opacity:1;fill-rule:nonzero;stroke:none"
             d="m 0,0 c 0,-6.362 -5.157,-11.52 -11.52,-11.52 -6.362,0 -11.52,5.158 -11.52,11.52 0,6.362 5.158,11.52 11.52,11.52 C -5.157,11.52 0,6.362 0,0" /></g><g
           transform="translate(269.4404,279.77)"
           id="g52"><path
             id="path54"
             style="fill:#556475;fill-opacity:1;fill-rule:nonzero;stroke:none"
             d="m 0,0 h -26.88 c -2.187,0 -3.96,1.773 -3.96,3.96 0,2.187 1.773,3.96 3.96,3.96 H 0 C 2.187,7.92 3.96,6.147 3.96,3.96 3.96,1.773 2.187,0 0,0" /></g><g
           transform="translate(370.6045,279.77)"
           id="g56"><path
             id="path58"
             style="fill:#cd7d46;fill-opacity:1;fill-rule:nonzero;stroke:none"
             d="m 0,0 c 0,-9.411 -7.629,-17.04 -17.04,-17.04 -9.411,0 -17.04,7.629 -17.04,17.04 0,9.411 7.629,17.04 17.04,17.04 C -7.629,17.04 0,9.411 0,0" /></g><g
           transform="translate(408.7646,279.77)"
           id="g60"><path
             id="path62"
             style="fill:#61bd6f;fill-opacity:1;fill-rule:nonzero;stroke:none"
             d="m 0,0 c 0,-9.411 -7.63,-17.04 -17.04,-17.04 -9.411,0 -17.04,7.629 -17.04,17.04 0,9.411 7.629,17.04 17.04,17.04 C -7.63,17.04 0,9.411 0,0" /></g><g
           transform="translate(370.6045,238.96)"
           id="g64"><path
             id="path66"
             style="fill:#459094;fill-opacity:1;fill-rule:nonzero;stroke:none"
             d="m 0,0 c 0,-9.411 -7.629,-17.04 -17.04,-17.04 -9.411,0 -17.04,7.629 -17.04,17.04 0,9.411 7.629,17.04 17.04,17.04 C -7.629,17.04 0,9.411 0,0" /></g><g
           transform="translate(408.7646,238.96)"
           id="g68"><path
             id="path70"
             style="fill:#e0335e;fill-opacity:1;fill-rule:nonzero;stroke:none"
             d="m 0,0 c 0,-9.411 -7.63,-17.04 -17.04,-17.04 -9.411,0 -17.04,7.629 -17.04,17.04 0,9.411 7.629,17.04 17.04,17.04 C -7.63,17.04 0,9.411 0,0" /></g></g></g></g></svg>